<?xml version="1.0" encoding="UTF-8" standalone="no"?>
<!-- Created with Inkscape (http://www.inkscape.org/) -->

<svg
   xmlns:dc="http://purl.org/dc/elements/1.1/"
   xmlns:cc="http://creativecommons.org/ns#"
   xmlns:rdf="http://www.w3.org/1999/02/22-rdf-syntax-ns#"
   xmlns:svg="http://www.w3.org/2000/svg"
   xmlns="http://www.w3.org/2000/svg"
   xmlns:sodipodi="http://sodipodi.sourceforge.net/DTD/sodipodi-0.dtd"
   xmlns:inkscape="http://www.inkscape.org/namespaces/inkscape"
   width="210mm"
   height="297mm"
   viewBox="0 0 210 297"
   version="1.1"
   id="svg8"
   inkscape:version="0.92.1 r15371"
   sodipodi:docname="LOGOJEI.svg">
  <defs
     id="defs2" />
  <sodipodi:namedview
     id="base"
     pagecolor="#ffffff"
     bordercolor="#666666"
     borderopacity="1.0"
     inkscape:pageopacity="0.0"
     inkscape:pageshadow="2"
     inkscape:zoom="0.21606045"
     inkscape:cx="-811.49699"
     inkscape:cy="1047.4795"
     inkscape:document-units="mm"
     inkscape:current-layer="layer1"
     showgrid="false"
     inkscape:snap-text-baseline="true"
     inkscape:window-width="1360"
     inkscape:window-height="706"
     inkscape:window-x="-8"
     inkscape:window-y="-8"
     inkscape:window-maximized="1" />
  <metadata
     id="metadata5">
    <rdf:RDF>
      <cc:Work
         rdf:about="">
        <dc:format>image/svg+xml</dc:format>
        <dc:type
           rdf:resource="http://purl.org/dc/dcmitype/StillImage" />
        <dc:title></dc:title>
      </cc:Work>
    </rdf:RDF>
  </metadata>
  <g
     inkscape:label="Capa 1"
     inkscape:groupmode="layer"
     id="layer1">
    <flowRoot
       xml:space="preserve"
       id="flowRoot18"
       style="fill:black;fill-opacity:1;stroke:none;font-family:sans-serif;font-style:normal;font-weight:normal;font-size:40px;line-height:1.25;letter-spacing:0px;word-spacing:0px"><flowRegion
         id="flowRegion20"><rect
           id="rect22"
           width="205.71428"
           height="250.77876"
           x="245.71428"
           y="168.23398" /></flowRegion><flowPara
         id="flowPara24"></flowPara></flowRoot>    <flowRoot
       xml:space="preserve"
       id="flowRoot26"
       style="fill:black;fill-opacity:1;stroke:none;font-family:sans-serif;font-style:normal;font-weight:normal;font-size:40px;line-height:1.25;letter-spacing:0px;word-spacing:0px"><flowRegion
         id="flowRegion28"><rect
           id="rect30"
           width="22.856861"
           height="229.22124"
           x="174.28572"
           y="419.01273" /></flowRegion><flowPara
         id="flowPara32"></flowPara></flowRoot>    <path
       style="fill:#800080;stroke-width:0.75595242"
       d="m 87.123511,233.24673 c 1.974927,-0.15573 5.206622,-0.15573 7.181548,0 1.974924,0.15572 0.359077,0.28313 -3.590774,0.28313 -3.949851,0 -5.565698,-0.12741 -3.590774,-0.28313 z"
       id="path68"
       inkscape:connector-curvature="0" />
    <g
       id="g83"
       transform="matrix(0.77074238,0,0,0.77172354,247.38204,24.794417)">
      <path
         sodipodi:nodetypes="ssscssssccccccccsssss"
         inkscape:connector-curvature="0"
         id="path72"
         d="m -286.61705,191.15635 c -3.56344,-2.18859 -3.65375,-2.179 -6.32143,-4.53258 -7.08715,-6.25269 -11.92216,-15.86894 -11.41755,-20.08658 4.66641,-39.00262 4.66641,-39.00262 4.66641,-39.00262 l 6.1696,8.1179 c 0,0 15.82553,25.06439 18.25175,28.23277 3.5777,4.67208 4.3384,6.41648 8.11704,2.15973 4.31138,-4.85696 6.09638,-18.81401 23.37234,-88.150771 3.13391,-12.57789 5.90876,-36.971426 12.2816,-56.168714 l -2.82108,-2.02601 -10.30464,-5.366878 -23.29185,-14.16363795 19.33226,-5.65414145 -19.33226,5.65414145 3.55381,-9.57135725 54.15789,12.6015792 -16.20427,73.646208 c -19.5169,88.701681 -23.90605,103.985681 -26.44793,113.654401 -2.43591,9.26559 3.00984,7.28826 -2.52295,9.80842 -4.05891,1.84881 -17.73505,-2.80138 -22.45632,-4.82248 -5.64421,-2.41618 -6.05182,-2.65231 -8.78242,-4.32938 z"
         style="fill:#00ff00;stroke-width:0.86795557" />
      <path
         sodipodi:nodetypes="ccccccccccccccccccccccccc"
         inkscape:connector-curvature="0"
         id="path74"
         d="m -231.22096,97.217615 21.0178,-94.018434 h 21.92261 l 14.83998,-0.6681738 5.21175,12.6527048 1.87089,11.449993 h -17.76488 -17.76488 v 27.592261 27.592267 h 17.76488 l 34.39583,0.75595 v 0 l 12.09524,21.922617 -46.49107,0.75595 h -17.76488 v 37.41964 37.41964 l 17.76488,-1.33635 56.61584,-5.48295 13.16038,15.62346 7.22022,10.04092 -81.55508,6.23892 -66.5474,-4.35622 z"
         style="fill:#0000ff;stroke-width:0.75595242" />
      <path
         sodipodi:nodetypes="ccccccccccccccccccccccccc"
         inkscape:connector-curvature="0"
         id="path76"
         d="m -114.34659,188.89619 -13.16038,-15.62346 19.53906,-9.62124 v 0 l -16.83292,-62.71382 -22.03738,-79.177741 -7.4475,2.114089 -12.07222,2.759687 -1.87089,-11.449993 -5.21175,-12.6527048 28.29101,-4.2363753 26.35276,-7.0633036 v 0 l 8.01928,7.5927441 -9.16657,7.7976627 -10.09137,7.7297519 23.35163,79.236638 14.563091,57.629785 9.394455,-6.90815 17.429529,-12.94598 6.613735,38.12054 v 0 l -48.44335,29.45279 v 0 z"
         style="fill:#ff0000;stroke-width:0.75595242" />
    </g>
  </g>
</svg>
